<?xml version="1.0" encoding="UTF-8" standalone="no"?>
<svg
   xmlns:dc="http://purl.org/dc/elements/1.1/"
   xmlns:cc="http://creativecommons.org/ns#"
   xmlns:rdf="http://www.w3.org/1999/02/22-rdf-syntax-ns#"
   xmlns:svg="http://www.w3.org/2000/svg"
   xmlns="http://www.w3.org/2000/svg"
   xmlns:sodipodi="http://sodipodi.sourceforge.net/DTD/sodipodi-0.dtd"
   xmlns:inkscape="http://www.inkscape.org/namespaces/inkscape"
   version="1.1"
   id="Capa_1"
   x="0px"
   y="0px"
   viewBox="0 0 512 512"
   style="enable-background:new 0 0 512 512;"
   xml:space="preserve"
   sodipodi:docname="lupa.svg"
   inkscape:version="1.0.2 (e86c870879, 2021-01-15, custom)"><metadata
   id="metadata61"><rdf:RDF><cc:Work
       rdf:about=""><dc:format>image/svg+xml</dc:format><dc:type
         rdf:resource="http://purl.org/dc/dcmitype/StillImage" /></cc:Work></rdf:RDF></metadata><defs
   id="defs59">
	

	

	

	
</defs><sodipodi:namedview
   pagecolor="#ffffff"
   bordercolor="#666666"
   borderopacity="1"
   objecttolerance="10"
   gridtolerance="10"
   guidetolerance="10"
   inkscape:pageopacity="0"
   inkscape:pageshadow="2"
   inkscape:window-width="1440"
   inkscape:window-height="847"
   id="namedview57"
   showgrid="false"
   inkscape:zoom="0.22097087"
   inkscape:cx="321.93723"
   inkscape:cy="141.17778"
   inkscape:window-x="1352"
   inkscape:window-y="-8"
   inkscape:window-maximized="1"
   inkscape:current-layer="Capa_1" />




<g
   id="g26">
</g>
<g
   id="g28">
</g>
<g
   id="g30">
</g>
<g
   id="g32">
</g>
<g
   id="g34">
</g>
<g
   id="g36">
</g>
<g
   id="g38">
</g>
<g
   id="g40">
</g>
<g
   id="g42">
</g>
<g
   id="g44">
</g>
<g
   id="g46">
</g>
<g
   id="g48">
</g>
<g
   id="g50">
</g>
<g
   id="g52">
</g>
<g
   id="g54">
</g>
<path
   id="path904-3"
   style="fill:none;fill-opacity:1;stroke:#f9f5f4;stroke-width:28.4612;stroke-miterlimit:4;stroke-dasharray:none;stroke-opacity:1"
   d="M 203.78215,14.2306 A 189.76806,189.76236 0 0 0 14.2306,203.99325 189.76806,189.76236 0 0 0 203.99895,393.7559 189.76806,189.76236 0 0 0 310.21682,361.24465 l 127.33986,126.45223 c 14.2579,14.15856 36.7052,13.66765 50.3304,-1.10064 13.6253,-14.76829 13.1165,-38.05475 -1.1414,-52.2133 L 361.43294,309.94298 A 189.76806,189.76236 0 0 0 393.76729,203.99325 189.76806,189.76236 0 0 0 203.99895,14.2306 a 189.76806,189.76236 0 0 0 -0.2168,0 z" /></svg>
