<?xml version="1.0" encoding="UTF-8" standalone="no"?>
<svg
   xmlns:dc="http://purl.org/dc/elements/1.1/"
   xmlns:cc="http://creativecommons.org/ns#"
   xmlns:rdf="http://www.w3.org/1999/02/22-rdf-syntax-ns#"
   xmlns:svg="http://www.w3.org/2000/svg"
   xmlns="http://www.w3.org/2000/svg"
   xmlns:sodipodi="http://sodipodi.sourceforge.net/DTD/sodipodi-0.dtd"
   xmlns:inkscape="http://www.inkscape.org/namespaces/inkscape"
   width="81.948997"
   height="83.934998"
   viewBox="0 0 21.682338 22.207802"
   version="1.1"
   id="svg8"
   inkscape:version="1.0.2 (e86c870879, 2021-01-15, custom)"
   sodipodi:docname="data-active.svg">
  <defs
     id="defs2">
    <clipPath
       clipPathUnits="userSpaceOnUse"
       id="clipPath1464">
      <rect
         style="opacity:0.997;fill:#6c5353;fill-opacity:1;stroke:none;stroke-width:3.49493;stroke-linecap:round;stroke-miterlimit:4;stroke-dasharray:none;stroke-opacity:1"
         id="rect1466"
         width="20.505209"
         height="20.505209"
         x="19.211039"
         y="156.85104"
         ry="10.252603" />
    </clipPath>
    <clipPath
       clipPathUnits="userSpaceOnUse"
       id="clipPath1468">
      <rect
         style="opacity:0.997;fill:#6c5353;fill-opacity:1;stroke:none;stroke-width:3.49493;stroke-linecap:round;stroke-miterlimit:4;stroke-dasharray:none;stroke-opacity:1"
         id="rect1470"
         width="20.505209"
         height="20.505209"
         x="19.211039"
         y="156.85104"
         ry="10.252603" />
    </clipPath>
    <clipPath
       clipPathUnits="userSpaceOnUse"
       id="clipPath1472">
      <rect
         style="opacity:0.997;fill:#6c5353;fill-opacity:1;stroke:none;stroke-width:3.49493;stroke-linecap:round;stroke-miterlimit:4;stroke-dasharray:none;stroke-opacity:1"
         id="rect1474"
         width="20.505209"
         height="20.505209"
         x="19.211039"
         y="156.85104"
         ry="10.252603" />
    </clipPath>
    <clipPath
       clipPathUnits="userSpaceOnUse"
       id="clipPath1476">
      <rect
         style="opacity:0.997;fill:#6c5353;fill-opacity:1;stroke:none;stroke-width:3.49493;stroke-linecap:round;stroke-miterlimit:4;stroke-dasharray:none;stroke-opacity:1"
         id="rect1478"
         width="20.505209"
         height="20.505209"
         x="19.211039"
         y="156.85104"
         ry="10.252603" />
    </clipPath>
    <clipPath
       clipPathUnits="userSpaceOnUse"
       id="clipPath1472-2">
      <rect
         style="opacity:0.997;fill:#6c5353;fill-opacity:1;stroke:none;stroke-width:3.49493;stroke-linecap:round;stroke-miterlimit:4;stroke-dasharray:none;stroke-opacity:1"
         id="rect1474-6"
         width="20.505209"
         height="20.505209"
         x="19.211039"
         y="156.85104"
         ry="10.252603" />
    </clipPath>
    <clipPath
       clipPathUnits="userSpaceOnUse"
       id="clipPath1472-6">
      <rect
         style="opacity:0.997;fill:#6c5353;fill-opacity:1;stroke:none;stroke-width:3.49493;stroke-linecap:round;stroke-miterlimit:4;stroke-dasharray:none;stroke-opacity:1"
         id="rect1474-0"
         width="20.505209"
         height="20.505209"
         x="19.211039"
         y="156.85104"
         ry="10.252603" />
    </clipPath>
    <clipPath
       clipPathUnits="userSpaceOnUse"
       id="clipPath1476-0">
      <rect
         style="opacity:0.997;fill:#6c5353;fill-opacity:1;stroke:none;stroke-width:3.49493;stroke-linecap:round;stroke-miterlimit:4;stroke-dasharray:none;stroke-opacity:1"
         id="rect1478-6"
         width="20.505209"
         height="20.505209"
         x="19.211039"
         y="156.85104"
         ry="10.252603" />
    </clipPath>
    <clipPath
       clipPathUnits="userSpaceOnUse"
       id="clipPath1472-5">
      <rect
         style="opacity:0.997;fill:#6c5353;fill-opacity:1;stroke:none;stroke-width:3.49493;stroke-linecap:round;stroke-miterlimit:4;stroke-dasharray:none;stroke-opacity:1"
         id="rect1474-06"
         width="20.505209"
         height="20.505209"
         x="19.211039"
         y="156.85104"
         ry="10.252603" />
    </clipPath>
    <clipPath
       clipPathUnits="userSpaceOnUse"
       id="clipPath1468-8">
      <rect
         style="opacity:0.997;fill:#6c5353;fill-opacity:1;stroke:none;stroke-width:3.49493;stroke-linecap:round;stroke-miterlimit:4;stroke-dasharray:none;stroke-opacity:1"
         id="rect1470-3"
         width="20.505209"
         height="20.505209"
         x="19.211039"
         y="156.85104"
         ry="10.252603" />
    </clipPath>
    <clipPath
       clipPathUnits="userSpaceOnUse"
       id="clipPath1464-5">
      <rect
         style="opacity:0.997;fill:#6c5353;fill-opacity:1;stroke:none;stroke-width:3.49493;stroke-linecap:round;stroke-miterlimit:4;stroke-dasharray:none;stroke-opacity:1"
         id="rect1466-7"
         width="20.505209"
         height="20.505209"
         x="19.211039"
         y="156.85104"
         ry="10.252603" />
    </clipPath>
    <clipPath
       clipPathUnits="userSpaceOnUse"
       id="clipPath1476-2">
      <rect
         style="opacity:0.997;fill:#6c5353;fill-opacity:1;stroke:none;stroke-width:3.49493;stroke-linecap:round;stroke-miterlimit:4;stroke-dasharray:none;stroke-opacity:1"
         id="rect1478-4"
         width="20.505209"
         height="20.505209"
         x="19.211039"
         y="156.85104"
         ry="10.252603" />
    </clipPath>
    <clipPath
       clipPathUnits="userSpaceOnUse"
       id="clipPath1472-3">
      <rect
         style="opacity:0.997;fill:#6c5353;fill-opacity:1;stroke:none;stroke-width:3.49493;stroke-linecap:round;stroke-miterlimit:4;stroke-dasharray:none;stroke-opacity:1"
         id="rect1474-2"
         width="20.505209"
         height="20.505209"
         x="19.211039"
         y="156.85104"
         ry="10.252603" />
    </clipPath>
    <clipPath
       clipPathUnits="userSpaceOnUse"
       id="clipPath1468-6">
      <rect
         style="opacity:0.997;fill:#6c5353;fill-opacity:1;stroke:none;stroke-width:3.49493;stroke-linecap:round;stroke-miterlimit:4;stroke-dasharray:none;stroke-opacity:1"
         id="rect1470-7"
         width="20.505209"
         height="20.505209"
         x="19.211039"
         y="156.85104"
         ry="10.252603" />
    </clipPath>
    <clipPath
       clipPathUnits="userSpaceOnUse"
       id="clipPath1464-7">
      <rect
         style="opacity:0.997;fill:#6c5353;fill-opacity:1;stroke:none;stroke-width:3.49493;stroke-linecap:round;stroke-miterlimit:4;stroke-dasharray:none;stroke-opacity:1"
         id="rect1466-4"
         width="20.505209"
         height="20.505209"
         x="19.211039"
         y="156.85104"
         ry="10.252603" />
    </clipPath>
  </defs>
  <sodipodi:namedview
     id="base"
     pagecolor="#ffffff"
     bordercolor="#666666"
     borderopacity="1.0"
     inkscape:pageopacity="0.0"
     inkscape:pageshadow="2"
     inkscape:zoom="4"
     inkscape:cx="20.858308"
     inkscape:cy="58.058824"
     inkscape:document-units="px"
     inkscape:current-layer="layer1"
     inkscape:document-rotation="0"
     showgrid="false"
     units="px"
     showguides="true"
     inkscape:guide-bbox="true"
     inkscape:window-width="1440"
     inkscape:window-height="847"
     inkscape:window-x="1352"
     inkscape:window-y="-8"
     inkscape:window-maximized="1" />
  <metadata
     id="metadata5">
    <rdf:RDF>
      <cc:Work
         rdf:about="">
        <dc:format>image/svg+xml</dc:format>
        <dc:type
           rdf:resource="http://purl.org/dc/dcmitype/StillImage" />
        <dc:title></dc:title>
      </cc:Work>
    </rdf:RDF>
  </metadata>
  <g
     inkscape:label="Capa 1"
     inkscape:groupmode="layer"
     id="layer1">
    <g
       id="g82"
       transform="translate(-1.4338013e-4,1.724462e-4)">
      <path
         id="rect1471-9-7-0-0"
         style="opacity:0.997;fill:#e4e4ea;fill-opacity:1;stroke:none;stroke-width:1.12589;stroke-linecap:round;stroke-linejoin:round;stroke-miterlimit:4;stroke-dasharray:none;stroke-dashoffset:14.0625;stroke-opacity:1"
         d="m 17.365268,11.657965 c -0.0027,4.667917 -2.997335,8.610041 -7.177855,10.021093 -0.2821223,0.06851 -0.5920685,0.08263 -0.9203582,0.05426 0.5246714,0.0868 1.0825822,0.133842 1.6784502,0.133842 5.86317,0 10.255705,-4.346038 10.255705,-10.209196 z M 6.6315561,20.794874 C 6.8477234,20.924176 7.0731034,21.043283 7.309035,21.150408 7.0850705,21.044519 6.8590475,20.925112 6.6315561,20.794874 Z" />
      <path
         id="rect1471-9-3-13-7-1"
         style="opacity:0.997;fill:#dc2827;fill-opacity:1;stroke:none;stroke-width:1.12589;stroke-linecap:round;stroke-linejoin:round;stroke-miterlimit:4;stroke-dasharray:none;stroke-dashoffset:14.0625;stroke-opacity:1"
         d="m 13.307636,1.0684298 c -5.8631608,0 -10.5833327,4.7201745 -10.5833327,10.5833332 h 4.5878326 c 0.00336,-1.9471084 1.5717493,-3.5134814 3.5196811,-3.5134814 1.947923,0 3.515791,1.566373 3.519167,3.5134814 h 6.927225 c 0,-5.8631587 -2.901153,-9.4257838 -7.970573,-10.5833332 z M 8.4138768,4.2506635 c 0.2565135,0 0.4630208,0.2065073 0.4630208,0.4630208 0,0.2565135 -0.2065073,0.4630208 -0.4630208,0.4630208 -0.2565136,0 -0.4630209,-0.2065073 -0.4630209,-0.4630208 0,-0.2565135 0.2065073,-0.4630208 0.4630209,-0.4630208 z M 7.2945649,4.8749161 a 0.46302101,0.46302101 0 0 1 0.00516,0 0.46302101,0.46302101 0 0 1 0.029453,0 A 0.46302101,0.46302101 0 0 1 7.7079658,5.0976423 0.46302101,0.46302101 0 0 1 7.551904,5.7322269 C 6.6488149,6.2802399 6.5164015,6.4788493 5.8641507,7.4768233 A 0.46302101,0.46302101 0 0 1 5.2238802,7.6096335 0.46302101,0.46302101 0 0 1 5.0890062,6.9688444 C 5.7502158,5.9571598 6.1003019,5.5308076 7.0713122,4.9415778 a 0.46302101,0.46302101 0 0 1 0.2232421,-0.066662 z" />
      <path
         id="rect1471-6-3-3-6-8"
         style="opacity:0.997;fill:#ef4846;fill-opacity:1;stroke:none;stroke-width:1.12589;stroke-linecap:round;stroke-linejoin:round;stroke-miterlimit:4;stroke-dasharray:none;stroke-dashoffset:14.0625;stroke-opacity:1"
         d="M 10.035484,1.5826105 C 5.7838629,2.9549407 2.7243033,6.9318424 2.7243033,11.651763 h 4.5878326 c 0.00336,-1.9471084 1.5717493,-3.5134814 3.5196811,-3.5134814 1.947923,0 3.515791,1.566373 3.519167,3.5134814 h 3.014284 C 17.362278,6.9276541 14.294974,2.9486912 10.035484,1.5826105 Z m -1.6216072,2.668053 c 0.2565135,0 0.4630208,0.2065073 0.4630208,0.4630208 0,0.2565135 -0.2065073,0.4630208 -0.4630208,0.4630208 -0.2565136,0 -0.4630209,-0.2065073 -0.4630209,-0.4630208 0,-0.2565135 0.2065073,-0.4630208 0.4630209,-0.4630208 z M 7.2945649,4.8749161 a 0.46302101,0.46302101 0 0 1 0.00516,0 0.46302101,0.46302101 0 0 1 0.029453,0 A 0.46302101,0.46302101 0 0 1 7.7079658,5.0976423 0.46302101,0.46302101 0 0 1 7.551904,5.7322269 C 6.6488149,6.2802399 6.5164015,6.4788493 5.8641507,7.4768233 A 0.46302101,0.46302101 0 0 1 5.2238802,7.6096335 0.46302101,0.46302101 0 0 1 5.0890062,6.9688444 C 5.7502158,5.9571598 6.1003019,5.5308076 7.0713122,4.9415778 a 0.46302101,0.46302101 0 0 1 0.2232421,-0.066662 z" />
      <path
         style="color:#000000;font-style:normal;font-variant:normal;font-weight:normal;font-stretch:normal;font-size:medium;line-height:normal;font-family:sans-serif;font-variant-ligatures:normal;font-variant-position:normal;font-variant-caps:normal;font-variant-numeric:normal;font-variant-alternates:normal;font-variant-east-asian:normal;font-feature-settings:normal;font-variation-settings:normal;text-indent:0;text-align:start;text-decoration:none;text-decoration-line:none;text-decoration-style:solid;text-decoration-color:#000000;letter-spacing:normal;word-spacing:normal;text-transform:none;writing-mode:lr-tb;direction:ltr;text-orientation:mixed;dominant-baseline:auto;baseline-shift:baseline;text-anchor:start;white-space:normal;shape-padding:0;shape-margin:0;inline-size:0;clip-rule:nonzero;display:inline;overflow:visible;visibility:visible;opacity:1;isolation:auto;mix-blend-mode:normal;color-interpolation:sRGB;color-interpolation-filters:linearRGB;solid-color:#000000;solid-opacity:1;vector-effect:none;fill:#19385e;fill-opacity:1;fill-rule:nonzero;stroke:none;stroke-linecap:round;stroke-linejoin:miter;stroke-miterlimit:4;stroke-dasharray:none;stroke-dashoffset:0;stroke-opacity:1;color-rendering:auto;image-rendering:auto;shape-rendering:auto;text-rendering:auto;enable-background:accumulate;stop-color:#000000;stop-opacity:1"
         d="m 10.886719,0 a 0.49609399,0.49609399 0 0 0 -0.503907,0.42382812 0.49609399,0.49609399 0 0 0 0.417969,0.5625 C 17.015375,1.8986963 19.998693,5.5745121 20.583984,9.5703125 21.169275,13.566113 19.285526,17.895525 15.509766,20.044922 11.652528,22.240701 6.8606263,21.174333 3.8574219,18.212891 0.85421745,15.251449 -0.38687154,10.47295 2.9628906,5.0214844 A 0.49609399,0.49609399 0 0 0 2.7988281,4.3398438 0.49609399,0.49609399 0 0 0 2.1171875,4.5019531 C -1.4294503,10.273818 -0.13392682,15.671646 3.1601562,18.919922 6.4542393,22.168197 11.717648,23.345984 16,20.908203 20.148729,18.54649 22.210623,13.823868 21.566406,9.4257812 20.92219,5.0276941 17.500779,0.96827122 10.945312,0.00585938 A 0.49609399,0.49609399 0 0 0 10.886719,0 Z"
         id="path1464-79-6" />
      <path
         style="color:#000000;font-style:normal;font-variant:normal;font-weight:normal;font-stretch:normal;font-size:medium;line-height:normal;font-family:sans-serif;font-variant-ligatures:normal;font-variant-position:normal;font-variant-caps:normal;font-variant-numeric:normal;font-variant-alternates:normal;font-variant-east-asian:normal;font-feature-settings:normal;font-variation-settings:normal;text-indent:0;text-align:start;text-decoration:none;text-decoration-line:none;text-decoration-style:solid;text-decoration-color:#000000;letter-spacing:normal;word-spacing:normal;text-transform:none;writing-mode:lr-tb;direction:ltr;text-orientation:mixed;dominant-baseline:auto;baseline-shift:baseline;text-anchor:start;white-space:normal;shape-padding:0;shape-margin:0;inline-size:0;clip-rule:nonzero;display:inline;overflow:visible;visibility:visible;opacity:1;isolation:auto;mix-blend-mode:normal;color-interpolation:sRGB;color-interpolation-filters:linearRGB;solid-color:#000000;solid-opacity:1;vector-effect:none;fill:#19385e;fill-opacity:1;fill-rule:nonzero;stroke:none;stroke-linecap:round;stroke-linejoin:miter;stroke-miterlimit:4;stroke-dasharray:none;stroke-dashoffset:0;stroke-opacity:1;color-rendering:auto;image-rendering:auto;shape-rendering:auto;text-rendering:auto;enable-background:accumulate;stop-color:#000000;stop-opacity:1"
         d="M 8.0527344,0.52539062 A 0.49609399,0.49609399 0 0 0 7.9257812,0.5390625 C 6.5532288,0.85774181 4.9645363,1.743445 3.5351562,2.9785156 A 0.49609399,0.49609399 0 0 0 3.484375,3.6777344 0.49609399,0.49609399 0 0 0 4.1835938,3.7285156 C 5.5116137,2.5810263 7.0170431,1.7690001 8.1503906,1.5058594 A 0.49609399,0.49609399 0 0 0 8.5214844,0.91015625 0.49609399,0.49609399 0 0 0 8.0527344,0.52539062 Z"
         id="path1466-1-2" />
      <path
         style="color:#000000;font-style:normal;font-variant:normal;font-weight:normal;font-stretch:normal;font-size:medium;line-height:normal;font-family:sans-serif;font-variant-ligatures:normal;font-variant-position:normal;font-variant-caps:normal;font-variant-numeric:normal;font-variant-alternates:normal;font-variant-east-asian:normal;font-feature-settings:normal;font-variation-settings:normal;text-indent:0;text-align:start;text-decoration:none;text-decoration-line:none;text-decoration-style:solid;text-decoration-color:#000000;letter-spacing:normal;word-spacing:normal;text-transform:none;writing-mode:lr-tb;direction:ltr;text-orientation:mixed;dominant-baseline:auto;baseline-shift:baseline;text-anchor:start;white-space:normal;shape-padding:0;shape-margin:0;inline-size:0;clip-rule:nonzero;display:inline;overflow:visible;visibility:visible;opacity:1;isolation:auto;mix-blend-mode:normal;color-interpolation:sRGB;color-interpolation-filters:linearRGB;solid-color:#000000;solid-opacity:1;vector-effect:none;fill:#19385e;fill-opacity:1;fill-rule:nonzero;stroke:none;stroke-linecap:round;stroke-linejoin:miter;stroke-miterlimit:4;stroke-dasharray:none;stroke-dashoffset:0;stroke-opacity:1;color-rendering:auto;image-rendering:auto;shape-rendering:auto;text-rendering:auto;enable-background:accumulate;stop-color:#000000;stop-opacity:1"
         d="M 9.5351562,0.18945312 A 0.49609399,0.49609399 0 0 0 9.0390625,0.68554688 0.49609399,0.49609399 0 0 0 9.5351562,1.1816406 0.49609399,0.49609399 0 0 0 10.03125,0.68554688 0.49609399,0.49609399 0 0 0 9.5351562,0.18945312 Z"
         id="path1468-6-6" />
      <path
         style="color:#000000;font-style:normal;font-variant:normal;font-weight:normal;font-stretch:normal;font-size:medium;line-height:normal;font-family:sans-serif;font-variant-ligatures:normal;font-variant-position:normal;font-variant-caps:normal;font-variant-numeric:normal;font-variant-alternates:normal;font-variant-east-asian:normal;font-feature-settings:normal;font-variation-settings:normal;text-indent:0;text-align:start;text-decoration:none;text-decoration-line:none;text-decoration-style:solid;text-decoration-color:#000000;letter-spacing:normal;word-spacing:normal;text-transform:none;writing-mode:lr-tb;direction:ltr;text-orientation:mixed;dominant-baseline:auto;baseline-shift:baseline;text-anchor:start;white-space:normal;shape-padding:0;shape-margin:0;inline-size:0;clip-rule:nonzero;display:inline;overflow:visible;visibility:visible;isolation:auto;mix-blend-mode:normal;color-interpolation:sRGB;color-interpolation-filters:linearRGB;solid-color:#000000;solid-opacity:1;vector-effect:none;fill:#19385e;fill-opacity:1;fill-rule:nonzero;stroke:none;stroke-width:0.582892;stroke-linecap:butt;stroke-linejoin:miter;stroke-miterlimit:4;stroke-dasharray:none;stroke-dashoffset:0;stroke-opacity:1;color-rendering:auto;image-rendering:auto;shape-rendering:auto;text-rendering:auto;enable-background:accumulate;stop-color:#000000"
         d="m 0.46207,11.125059 v 1.064453 h 7.04609 v -1.064453 z"
         id="path1039-7-7-8" />
      <path
         id="rect28-81-6-4-3"
         style="color:#000000;font-style:normal;font-variant:normal;font-weight:normal;font-stretch:normal;font-size:medium;line-height:normal;font-family:sans-serif;font-variant-ligatures:normal;font-variant-position:normal;font-variant-caps:normal;font-variant-numeric:normal;font-variant-alternates:normal;font-variant-east-asian:normal;font-feature-settings:normal;font-variation-settings:normal;text-indent:0;text-align:start;text-decoration:none;text-decoration-line:none;text-decoration-style:solid;text-decoration-color:#000000;letter-spacing:normal;word-spacing:normal;text-transform:none;writing-mode:lr-tb;direction:ltr;text-orientation:mixed;dominant-baseline:auto;baseline-shift:baseline;text-anchor:start;white-space:normal;shape-padding:0;shape-margin:0;inline-size:0;clip-rule:nonzero;display:inline;overflow:visible;visibility:visible;opacity:0.997;isolation:auto;mix-blend-mode:normal;color-interpolation:sRGB;color-interpolation-filters:linearRGB;solid-color:#000000;solid-opacity:1;vector-effect:none;fill:#19385e;fill-opacity:1;fill-rule:nonzero;stroke:none;stroke-width:0.459182;stroke-linecap:round;stroke-linejoin:miter;stroke-miterlimit:4;stroke-dasharray:none;stroke-dashoffset:0;stroke-opacity:1;color-rendering:auto;image-rendering:auto;shape-rendering:auto;text-rendering:auto;enable-background:accumulate;stop-color:#000000"
         d="m 10.831817,8.1382816 c -1.9500299,0 -3.520197,1.5696565 -3.520197,3.5196834 0,1.950027 1.5701671,3.51968 3.520197,3.51968 1.950021,0 3.519683,-1.569653 3.519683,-3.51968 0,-1.9500269 -1.569662,-3.5196834 -3.519683,-3.5196834 z m 0,1.0392145 c 1.374179,0 2.480468,1.1062889 2.480468,2.4804689 0,1.374179 -1.106289,2.480469 -2.480468,2.480469 -1.3741802,0 -2.4804692,-1.10629 -2.4804692,-2.480469 0,-1.37418 1.106289,-2.4804689 2.4804692,-2.4804689 z" />
      <path
         style="color:#000000;font-style:normal;font-variant:normal;font-weight:normal;font-stretch:normal;font-size:medium;line-height:normal;font-family:sans-serif;font-variant-ligatures:normal;font-variant-position:normal;font-variant-caps:normal;font-variant-numeric:normal;font-variant-alternates:normal;font-variant-east-asian:normal;font-feature-settings:normal;font-variation-settings:normal;text-indent:0;text-align:start;text-decoration:none;text-decoration-line:none;text-decoration-style:solid;text-decoration-color:#000000;letter-spacing:normal;word-spacing:normal;text-transform:none;writing-mode:lr-tb;direction:ltr;text-orientation:mixed;dominant-baseline:auto;baseline-shift:baseline;text-anchor:start;white-space:normal;shape-padding:0;shape-margin:0;inline-size:0;clip-rule:nonzero;display:inline;overflow:visible;visibility:visible;opacity:0.997;isolation:auto;mix-blend-mode:normal;color-interpolation:sRGB;color-interpolation-filters:linearRGB;solid-color:#000000;solid-opacity:1;vector-effect:none;fill:#19385e;fill-opacity:1;fill-rule:nonzero;stroke:none;stroke-width:0.175661;stroke-linecap:round;stroke-linejoin:miter;stroke-miterlimit:4;stroke-dasharray:none;stroke-dashoffset:0;stroke-opacity:1;color-rendering:auto;image-rendering:auto;shape-rendering:auto;text-rendering:auto;enable-background:accumulate;stop-color:#000000;stop-opacity:1"
         d="m 10.831665,10.311399 c 0.745983,0 1.34654,0.600557 1.34654,1.346541 0,0.745983 -0.600557,1.34654 -1.34654,1.34654 -0.745983,0 -1.3465404,-0.600557 -1.3465404,-1.34654 0,-0.745984 0.6005574,-1.346541 1.3465404,-1.346541 z"
         id="rect28-81-2-0-1-3-2" />
      <path
         style="color:#000000;font-style:normal;font-variant:normal;font-weight:normal;font-stretch:normal;font-size:medium;line-height:normal;font-family:sans-serif;font-variant-ligatures:normal;font-variant-position:normal;font-variant-caps:normal;font-variant-numeric:normal;font-variant-alternates:normal;font-variant-east-asian:normal;font-feature-settings:normal;font-variation-settings:normal;text-indent:0;text-align:start;text-decoration:none;text-decoration-line:none;text-decoration-style:solid;text-decoration-color:#000000;letter-spacing:normal;word-spacing:normal;text-transform:none;writing-mode:lr-tb;direction:ltr;text-orientation:mixed;dominant-baseline:auto;baseline-shift:baseline;text-anchor:start;white-space:normal;shape-padding:0;shape-margin:0;inline-size:0;clip-rule:nonzero;display:inline;overflow:visible;visibility:visible;isolation:auto;mix-blend-mode:normal;color-interpolation:sRGB;color-interpolation-filters:linearRGB;solid-color:#000000;solid-opacity:1;vector-effect:none;fill:#19385e;fill-opacity:1;fill-rule:nonzero;stroke:none;stroke-width:0.582892;stroke-linecap:butt;stroke-linejoin:miter;stroke-miterlimit:4;stroke-dasharray:none;stroke-dashoffset:0;stroke-opacity:1;color-rendering:auto;image-rendering:auto;shape-rendering:auto;text-rendering:auto;enable-background:accumulate;stop-color:#000000"
         d="m 13.79201,11.125059 v 1.064453 h 7.04609 v -1.064453 z"
         id="path1039-7-7-7" />
    </g>
  </g>
</svg>
