<?xml version="1.0" encoding="UTF-8" standalone="no"?>
<svg
   xmlns:dc="http://purl.org/dc/elements/1.1/"
   xmlns:cc="http://creativecommons.org/ns#"
   xmlns:rdf="http://www.w3.org/1999/02/22-rdf-syntax-ns#"
   xmlns:svg="http://www.w3.org/2000/svg"
   xmlns="http://www.w3.org/2000/svg"
   xmlns:sodipodi="http://sodipodi.sourceforge.net/DTD/sodipodi-0.dtd"
   xmlns:inkscape="http://www.inkscape.org/namespaces/inkscape"
   width="56.813"
   height="86.038002"
   viewBox="0 0 15.031773 22.764222"
   version="1.1"
   id="svg8"
   inkscape:version="1.0.2 (e86c870879, 2021-01-15, custom)"
   sodipodi:docname="moves-hidden.svg">
  <defs
     id="defs2">
    <clipPath
       clipPathUnits="userSpaceOnUse"
       id="clipPath1464">
      <rect
         style="opacity:0.997;fill:#6c5353;fill-opacity:1;stroke:none;stroke-width:3.49493;stroke-linecap:round;stroke-miterlimit:4;stroke-dasharray:none;stroke-opacity:1"
         id="rect1466"
         width="20.505209"
         height="20.505209"
         x="19.211039"
         y="156.85104"
         ry="10.252603" />
    </clipPath>
    <clipPath
       clipPathUnits="userSpaceOnUse"
       id="clipPath1468">
      <rect
         style="opacity:0.997;fill:#6c5353;fill-opacity:1;stroke:none;stroke-width:3.49493;stroke-linecap:round;stroke-miterlimit:4;stroke-dasharray:none;stroke-opacity:1"
         id="rect1470"
         width="20.505209"
         height="20.505209"
         x="19.211039"
         y="156.85104"
         ry="10.252603" />
    </clipPath>
    <clipPath
       clipPathUnits="userSpaceOnUse"
       id="clipPath1472">
      <rect
         style="opacity:0.997;fill:#6c5353;fill-opacity:1;stroke:none;stroke-width:3.49493;stroke-linecap:round;stroke-miterlimit:4;stroke-dasharray:none;stroke-opacity:1"
         id="rect1474"
         width="20.505209"
         height="20.505209"
         x="19.211039"
         y="156.85104"
         ry="10.252603" />
    </clipPath>
    <clipPath
       clipPathUnits="userSpaceOnUse"
       id="clipPath1476">
      <rect
         style="opacity:0.997;fill:#6c5353;fill-opacity:1;stroke:none;stroke-width:3.49493;stroke-linecap:round;stroke-miterlimit:4;stroke-dasharray:none;stroke-opacity:1"
         id="rect1478"
         width="20.505209"
         height="20.505209"
         x="19.211039"
         y="156.85104"
         ry="10.252603" />
    </clipPath>
    <clipPath
       clipPathUnits="userSpaceOnUse"
       id="clipPath1472-2">
      <rect
         style="opacity:0.997;fill:#6c5353;fill-opacity:1;stroke:none;stroke-width:3.49493;stroke-linecap:round;stroke-miterlimit:4;stroke-dasharray:none;stroke-opacity:1"
         id="rect1474-6"
         width="20.505209"
         height="20.505209"
         x="19.211039"
         y="156.85104"
         ry="10.252603" />
    </clipPath>
    <clipPath
       clipPathUnits="userSpaceOnUse"
       id="clipPath1472-6">
      <rect
         style="opacity:0.997;fill:#6c5353;fill-opacity:1;stroke:none;stroke-width:3.49493;stroke-linecap:round;stroke-miterlimit:4;stroke-dasharray:none;stroke-opacity:1"
         id="rect1474-0"
         width="20.505209"
         height="20.505209"
         x="19.211039"
         y="156.85104"
         ry="10.252603" />
    </clipPath>
    <clipPath
       clipPathUnits="userSpaceOnUse"
       id="clipPath1476-0">
      <rect
         style="opacity:0.997;fill:#6c5353;fill-opacity:1;stroke:none;stroke-width:3.49493;stroke-linecap:round;stroke-miterlimit:4;stroke-dasharray:none;stroke-opacity:1"
         id="rect1478-6"
         width="20.505209"
         height="20.505209"
         x="19.211039"
         y="156.85104"
         ry="10.252603" />
    </clipPath>
    <clipPath
       clipPathUnits="userSpaceOnUse"
       id="clipPath1472-5">
      <rect
         style="opacity:0.997;fill:#6c5353;fill-opacity:1;stroke:none;stroke-width:3.49493;stroke-linecap:round;stroke-miterlimit:4;stroke-dasharray:none;stroke-opacity:1"
         id="rect1474-06"
         width="20.505209"
         height="20.505209"
         x="19.211039"
         y="156.85104"
         ry="10.252603" />
    </clipPath>
    <clipPath
       clipPathUnits="userSpaceOnUse"
       id="clipPath1468-8">
      <rect
         style="opacity:0.997;fill:#6c5353;fill-opacity:1;stroke:none;stroke-width:3.49493;stroke-linecap:round;stroke-miterlimit:4;stroke-dasharray:none;stroke-opacity:1"
         id="rect1470-3"
         width="20.505209"
         height="20.505209"
         x="19.211039"
         y="156.85104"
         ry="10.252603" />
    </clipPath>
    <clipPath
       clipPathUnits="userSpaceOnUse"
       id="clipPath1464-5">
      <rect
         style="opacity:0.997;fill:#6c5353;fill-opacity:1;stroke:none;stroke-width:3.49493;stroke-linecap:round;stroke-miterlimit:4;stroke-dasharray:none;stroke-opacity:1"
         id="rect1466-7"
         width="20.505209"
         height="20.505209"
         x="19.211039"
         y="156.85104"
         ry="10.252603" />
    </clipPath>
    <clipPath
       clipPathUnits="userSpaceOnUse"
       id="clipPath1476-2">
      <rect
         style="opacity:0.997;fill:#6c5353;fill-opacity:1;stroke:none;stroke-width:3.49493;stroke-linecap:round;stroke-miterlimit:4;stroke-dasharray:none;stroke-opacity:1"
         id="rect1478-4"
         width="20.505209"
         height="20.505209"
         x="19.211039"
         y="156.85104"
         ry="10.252603" />
    </clipPath>
    <clipPath
       clipPathUnits="userSpaceOnUse"
       id="clipPath1472-3">
      <rect
         style="opacity:0.997;fill:#6c5353;fill-opacity:1;stroke:none;stroke-width:3.49493;stroke-linecap:round;stroke-miterlimit:4;stroke-dasharray:none;stroke-opacity:1"
         id="rect1474-2"
         width="20.505209"
         height="20.505209"
         x="19.211039"
         y="156.85104"
         ry="10.252603" />
    </clipPath>
    <clipPath
       clipPathUnits="userSpaceOnUse"
       id="clipPath1468-6">
      <rect
         style="opacity:0.997;fill:#6c5353;fill-opacity:1;stroke:none;stroke-width:3.49493;stroke-linecap:round;stroke-miterlimit:4;stroke-dasharray:none;stroke-opacity:1"
         id="rect1470-7"
         width="20.505209"
         height="20.505209"
         x="19.211039"
         y="156.85104"
         ry="10.252603" />
    </clipPath>
    <clipPath
       clipPathUnits="userSpaceOnUse"
       id="clipPath1464-7">
      <rect
         style="opacity:0.997;fill:#6c5353;fill-opacity:1;stroke:none;stroke-width:3.49493;stroke-linecap:round;stroke-miterlimit:4;stroke-dasharray:none;stroke-opacity:1"
         id="rect1466-4"
         width="20.505209"
         height="20.505209"
         x="19.211039"
         y="156.85104"
         ry="10.252603" />
    </clipPath>
  </defs>
  <sodipodi:namedview
     id="base"
     pagecolor="#ffffff"
     bordercolor="#666666"
     borderopacity="1.0"
     inkscape:pageopacity="0.0"
     inkscape:pageshadow="2"
     inkscape:zoom="1.4142136"
     inkscape:cx="226.89822"
     inkscape:cy="6.7129998"
     inkscape:document-units="px"
     inkscape:current-layer="layer1"
     inkscape:document-rotation="0"
     showgrid="false"
     units="px"
     showguides="true"
     inkscape:guide-bbox="true"
     inkscape:window-width="1440"
     inkscape:window-height="847"
     inkscape:window-x="1352"
     inkscape:window-y="-8"
     inkscape:window-maximized="1" />
  <metadata
     id="metadata5">
    <rdf:RDF>
      <cc:Work
         rdf:about="">
        <dc:format>image/svg+xml</dc:format>
        <dc:type
           rdf:resource="http://purl.org/dc/dcmitype/StillImage" />
        <dc:title></dc:title>
      </cc:Work>
    </rdf:RDF>
  </metadata>
  <g
     inkscape:label="Capa 1"
     inkscape:groupmode="layer"
     id="layer1">
    <g
       id="g2920"
       transform="translate(-127.18799,-120.9831)">
      <g
         id="g3030"
         transform="translate(-47.894698,27.314945)">
        <path
           style="color:#000000;font-style:normal;font-variant:normal;font-weight:normal;font-stretch:normal;font-size:medium;line-height:normal;font-family:sans-serif;font-variant-ligatures:normal;font-variant-position:normal;font-variant-caps:normal;font-variant-numeric:normal;font-variant-alternates:normal;font-variant-east-asian:normal;font-feature-settings:normal;font-variation-settings:normal;text-indent:0;text-align:start;text-decoration:none;text-decoration-line:none;text-decoration-style:solid;text-decoration-color:#000000;letter-spacing:normal;word-spacing:normal;text-transform:none;writing-mode:lr-tb;direction:ltr;text-orientation:mixed;dominant-baseline:auto;baseline-shift:baseline;text-anchor:start;white-space:normal;shape-padding:0;shape-margin:0;inline-size:0;clip-rule:nonzero;display:inline;overflow:visible;visibility:visible;isolation:auto;mix-blend-mode:normal;color-interpolation:sRGB;color-interpolation-filters:linearRGB;solid-color:#000000;solid-opacity:1;vector-effect:none;fill:#8fdfff;fill-opacity:1;fill-rule:nonzero;stroke:none;stroke-width:1.00012;stroke-linecap:round;stroke-linejoin:round;stroke-miterlimit:4;stroke-dasharray:none;stroke-dashoffset:0;stroke-opacity:1;color-rendering:auto;image-rendering:auto;shape-rendering:auto;text-rendering:auto;enable-background:accumulate;stop-color:#000000"
           d="m 183.88382,93.687938 a 0.4961436,0.4961436 0 0 0 -0.008,0.002 l -8.27734,1.26171 a 0.49609399,0.49609399 0 0 0 -0.41602,0.56641 0.49609399,0.49609399 0 0 0 0.56445,0.41602 l 8.27344,-1.26172 c 0.3807,-0.0532 0.46584,0.026 0.52539,0.10742 0.0596,0.0814 0.106,0.28381 0.0449,0.55273 a 0.4961436,0.4961436 0 0 0 -0.004,0.0137 l -1.28516,6.429682 a 0.4961436,0.4961436 0 0 0 -0.002,0.01 c -0.10738,0.58793 0.0616,1.15189 0.46484,1.46289 0.40328,0.31099 0.94313,0.33981 1.44336,0.17187 l 3.26172,-0.83203 c 0.21459,-0.0546 0.36929,0.0228 0.50195,0.1836 0.13267,0.16079 0.17484,0.38543 0.125,0.52343 l -4.8789,11.78907 a 0.4961436,0.4961436 0 0 0 0,0.004 c -0.0939,0.23134 -0.32305,0.35067 -0.52539,0.35157 -0.20235,8.9e-4 -0.33487,-0.0412 -0.40235,-0.34375 a 0.4961436,0.4961436 0 0 0 -0.002,-0.008 l -1.33398,-5.51953 h 0.002 c -0.10209,-0.42639 -0.22188,-0.8315 -0.5293,-1.1582 -0.30742,-0.3267 -0.81364,-0.46934 -1.3418,-0.38477 a 0.4961436,0.4961436 0 0 0 -0.0176,0.004 l -3.57813,0.70117 c -0.15007,0.0295 -0.39663,-0.16393 -0.39062,-0.46289 a 0.4961436,0.4961436 0 0 0 0,-0.0117 l -0.0234,-4.11719 a 0.49609399,0.49609399 0 0 0 -0.49805,-0.49218 0.49609399,0.49609399 0 0 0 -0.49414,0.49804 l 0.0234,4.10352 c -0.0174,0.8656 0.71557,1.62384 1.57422,1.45508 l 3.56054,-0.69727 c 0.32116,-0.0514 0.3755,-0.009 0.4629,0.084 0.0874,0.0929 0.19658,0.34099 0.28515,0.71093 a 0.4961436,0.4961436 0 0 0 0.002,0 l 1.33008,5.51172 c 0.15724,0.70504 0.78658,1.12177 1.37696,1.11914 0.58989,-0.003 1.18484,-0.34793 1.4375,-0.96875 v -0.002 l 4.88671,-11.80664 a 0.4961436,0.4961436 0 0 0 0.008,-0.0215 c 0.19247,-0.53299 0.0385,-1.09047 -0.29297,-1.49219 -0.33145,-0.40173 -0.9083,-0.66734 -1.51172,-0.51367 l -3.29688,0.84179 a 0.4961436,0.4961436 0 0 0 -0.0351,0.01 c -0.26881,0.0902 -0.44534,0.0446 -0.52344,-0.0156 -0.0781,-0.0602 -0.15527,-0.16312 -0.0937,-0.5 l 1.28125,-6.410152 c 0.104,-0.4579 0.0838,-0.95637 -0.21094,-1.35938 -0.29471,-0.40301 -0.85052,-0.59152 -1.46289,-0.50586 z"
           id="path2542" />
        <path
           style="color:#000000;font-style:normal;font-variant:normal;font-weight:normal;font-stretch:normal;font-size:medium;line-height:normal;font-family:sans-serif;font-variant-ligatures:normal;font-variant-position:normal;font-variant-caps:normal;font-variant-numeric:normal;font-variant-alternates:normal;font-variant-east-asian:normal;font-feature-settings:normal;font-variation-settings:normal;text-indent:0;text-align:start;text-decoration:none;text-decoration-line:none;text-decoration-style:solid;text-decoration-color:#000000;letter-spacing:normal;word-spacing:normal;text-transform:none;writing-mode:lr-tb;direction:ltr;text-orientation:mixed;dominant-baseline:auto;baseline-shift:baseline;text-anchor:start;white-space:normal;shape-padding:0;shape-margin:0;inline-size:0;clip-rule:nonzero;display:inline;overflow:visible;visibility:visible;isolation:auto;mix-blend-mode:normal;color-interpolation:sRGB;color-interpolation-filters:linearRGB;solid-color:#000000;solid-opacity:1;vector-effect:none;fill:#8fdfff;fill-opacity:1;fill-rule:nonzero;stroke:none;stroke-width:1.00012;stroke-linecap:round;stroke-linejoin:miter;stroke-miterlimit:4;stroke-dasharray:none;stroke-dashoffset:0;stroke-opacity:1;color-rendering:auto;image-rendering:auto;shape-rendering:auto;text-rendering:auto;enable-background:accumulate;stop-color:#000000"
           d="m 175.61429,98.139108 a 0.49609375,0.49609375 0 0 0 -0.49609,0.4961 v 3.962892 a 0.49609375,0.49609375 0 0 0 0.49609,0.49609 0.49609375,0.49609375 0 0 0 0.49609,-0.49609 v -3.962892 a 0.49609375,0.49609375 0 0 0 -0.49609,-0.4961 z"
           id="path2544" />
        <path
           style="color:#000000;font-style:normal;font-variant:normal;font-weight:normal;font-stretch:normal;font-size:medium;line-height:normal;font-family:sans-serif;font-variant-ligatures:normal;font-variant-position:normal;font-variant-caps:normal;font-variant-numeric:normal;font-variant-alternates:normal;font-variant-east-asian:normal;font-feature-settings:normal;font-variation-settings:normal;text-indent:0;text-align:start;text-decoration:none;text-decoration-line:none;text-decoration-style:solid;text-decoration-color:#000000;letter-spacing:normal;word-spacing:normal;text-transform:none;writing-mode:lr-tb;direction:ltr;text-orientation:mixed;dominant-baseline:auto;baseline-shift:baseline;text-anchor:start;white-space:normal;shape-padding:0;shape-margin:0;inline-size:0;clip-rule:nonzero;display:inline;overflow:visible;visibility:visible;isolation:auto;mix-blend-mode:normal;color-interpolation:sRGB;color-interpolation-filters:linearRGB;solid-color:#000000;solid-opacity:1;vector-effect:none;fill:#8fdfff;fill-opacity:1;fill-rule:nonzero;stroke:none;stroke-width:1.00012;stroke-linecap:round;stroke-linejoin:miter;stroke-miterlimit:4;stroke-dasharray:none;stroke-dashoffset:0;stroke-opacity:1;color-rendering:auto;image-rendering:auto;shape-rendering:auto;text-rendering:auto;enable-background:accumulate;stop-color:#000000"
           d="m 175.63773,96.584428 a 0.49609399,0.49609399 0 0 0 -0.49609,0.49609 0.49609399,0.49609399 0 0 0 0.49609,0.49609 0.49609399,0.49609399 0 0 0 0.49609,-0.49609 0.49609399,0.49609399 0 0 0 -0.49609,-0.49609 z"
           id="path2546" />
        <path
           style="color:#000000;font-style:normal;font-variant:normal;font-weight:normal;font-stretch:normal;font-size:medium;line-height:normal;font-family:sans-serif;font-variant-ligatures:normal;font-variant-position:normal;font-variant-caps:normal;font-variant-numeric:normal;font-variant-alternates:normal;font-variant-east-asian:normal;font-feature-settings:normal;font-variation-settings:normal;text-indent:0;text-align:start;text-decoration:none;text-decoration-line:none;text-decoration-style:solid;text-decoration-color:#000000;letter-spacing:normal;word-spacing:normal;text-transform:none;writing-mode:lr-tb;direction:ltr;text-orientation:mixed;dominant-baseline:auto;baseline-shift:baseline;text-anchor:start;white-space:normal;shape-padding:0;shape-margin:0;inline-size:0;clip-rule:nonzero;display:inline;overflow:visible;visibility:visible;isolation:auto;mix-blend-mode:normal;color-interpolation:sRGB;color-interpolation-filters:linearRGB;solid-color:#000000;solid-opacity:1;vector-effect:none;fill:#8fdfff;fill-opacity:1;fill-rule:nonzero;stroke:none;stroke-linecap:round;stroke-linejoin:miter;stroke-miterlimit:4;stroke-dasharray:none;stroke-dashoffset:0;stroke-opacity:1;color-rendering:auto;image-rendering:auto;shape-rendering:auto;text-rendering:auto;enable-background:accumulate;stop-color:#000000"
           d="m 178.45609,100.39497 a 0.49609375,0.49609375 0 0 0 -0.4961,0.4961 v 2.64258 a 0.49609375,0.49609375 0 0 0 0.4961,0.49609 0.49609375,0.49609375 0 0 0 0.49609,-0.49609 v -2.64258 a 0.49609375,0.49609375 0 0 0 -0.49609,-0.4961 z"
           id="path2632" />
        <path
           style="color:#000000;font-style:normal;font-variant:normal;font-weight:normal;font-stretch:normal;font-size:medium;line-height:normal;font-family:sans-serif;font-variant-ligatures:normal;font-variant-position:normal;font-variant-caps:normal;font-variant-numeric:normal;font-variant-alternates:normal;font-variant-east-asian:normal;font-feature-settings:normal;font-variation-settings:normal;text-indent:0;text-align:start;text-decoration:none;text-decoration-line:none;text-decoration-style:solid;text-decoration-color:#000000;letter-spacing:normal;word-spacing:normal;text-transform:none;writing-mode:lr-tb;direction:ltr;text-orientation:mixed;dominant-baseline:auto;baseline-shift:baseline;text-anchor:start;white-space:normal;shape-padding:0;shape-margin:0;inline-size:0;clip-rule:nonzero;display:inline;overflow:visible;visibility:visible;isolation:auto;mix-blend-mode:normal;color-interpolation:sRGB;color-interpolation-filters:linearRGB;solid-color:#000000;solid-opacity:1;vector-effect:none;fill:#8fdfff;fill-opacity:1;fill-rule:nonzero;stroke:none;stroke-linecap:round;stroke-linejoin:miter;stroke-miterlimit:4;stroke-dasharray:none;stroke-dashoffset:0;stroke-opacity:1;color-rendering:auto;image-rendering:auto;shape-rendering:auto;text-rendering:auto;enable-background:accumulate;stop-color:#000000"
           d="m 178.43265,98.793408 a 0.49609399,0.49609399 0 0 0 -0.49609,0.49609 0.49609399,0.49609399 0 0 0 0.49609,0.4961 0.49609399,0.49609399 0 0 0 0.49609,-0.4961 0.49609399,0.49609399 0 0 0 -0.49609,-0.49609 z"
           id="path2632-9" />
      </g>
    </g>
  </g>
</svg>
