<?xml version="1.0" encoding="UTF-8" standalone="no"?>
<svg
   xmlns:dc="http://purl.org/dc/elements/1.1/"
   xmlns:cc="http://creativecommons.org/ns#"
   xmlns:rdf="http://www.w3.org/1999/02/22-rdf-syntax-ns#"
   xmlns:svg="http://www.w3.org/2000/svg"
   xmlns="http://www.w3.org/2000/svg"
   xmlns:sodipodi="http://sodipodi.sourceforge.net/DTD/sodipodi-0.dtd"
   xmlns:inkscape="http://www.inkscape.org/namespaces/inkscape"
   width="75.384003"
   height="85.738998"
   viewBox="0 0 19.945351 22.685111"
   version="1.1"
   id="svg8"
   inkscape:version="1.0.2 (e86c870879, 2021-01-15, custom)"
   sodipodi:docname="stats-hidden.svg">
  <defs
     id="defs2">
    <clipPath
       clipPathUnits="userSpaceOnUse"
       id="clipPath1464">
      <rect
         style="opacity:0.997;fill:#6c5353;fill-opacity:1;stroke:none;stroke-width:3.49493;stroke-linecap:round;stroke-miterlimit:4;stroke-dasharray:none;stroke-opacity:1"
         id="rect1466"
         width="20.505209"
         height="20.505209"
         x="19.211039"
         y="156.85104"
         ry="10.252603" />
    </clipPath>
    <clipPath
       clipPathUnits="userSpaceOnUse"
       id="clipPath1468">
      <rect
         style="opacity:0.997;fill:#6c5353;fill-opacity:1;stroke:none;stroke-width:3.49493;stroke-linecap:round;stroke-miterlimit:4;stroke-dasharray:none;stroke-opacity:1"
         id="rect1470"
         width="20.505209"
         height="20.505209"
         x="19.211039"
         y="156.85104"
         ry="10.252603" />
    </clipPath>
    <clipPath
       clipPathUnits="userSpaceOnUse"
       id="clipPath1472">
      <rect
         style="opacity:0.997;fill:#6c5353;fill-opacity:1;stroke:none;stroke-width:3.49493;stroke-linecap:round;stroke-miterlimit:4;stroke-dasharray:none;stroke-opacity:1"
         id="rect1474"
         width="20.505209"
         height="20.505209"
         x="19.211039"
         y="156.85104"
         ry="10.252603" />
    </clipPath>
    <clipPath
       clipPathUnits="userSpaceOnUse"
       id="clipPath1476">
      <rect
         style="opacity:0.997;fill:#6c5353;fill-opacity:1;stroke:none;stroke-width:3.49493;stroke-linecap:round;stroke-miterlimit:4;stroke-dasharray:none;stroke-opacity:1"
         id="rect1478"
         width="20.505209"
         height="20.505209"
         x="19.211039"
         y="156.85104"
         ry="10.252603" />
    </clipPath>
    <clipPath
       clipPathUnits="userSpaceOnUse"
       id="clipPath1472-2">
      <rect
         style="opacity:0.997;fill:#6c5353;fill-opacity:1;stroke:none;stroke-width:3.49493;stroke-linecap:round;stroke-miterlimit:4;stroke-dasharray:none;stroke-opacity:1"
         id="rect1474-6"
         width="20.505209"
         height="20.505209"
         x="19.211039"
         y="156.85104"
         ry="10.252603" />
    </clipPath>
    <clipPath
       clipPathUnits="userSpaceOnUse"
       id="clipPath1472-6">
      <rect
         style="opacity:0.997;fill:#6c5353;fill-opacity:1;stroke:none;stroke-width:3.49493;stroke-linecap:round;stroke-miterlimit:4;stroke-dasharray:none;stroke-opacity:1"
         id="rect1474-0"
         width="20.505209"
         height="20.505209"
         x="19.211039"
         y="156.85104"
         ry="10.252603" />
    </clipPath>
    <clipPath
       clipPathUnits="userSpaceOnUse"
       id="clipPath1476-0">
      <rect
         style="opacity:0.997;fill:#6c5353;fill-opacity:1;stroke:none;stroke-width:3.49493;stroke-linecap:round;stroke-miterlimit:4;stroke-dasharray:none;stroke-opacity:1"
         id="rect1478-6"
         width="20.505209"
         height="20.505209"
         x="19.211039"
         y="156.85104"
         ry="10.252603" />
    </clipPath>
    <clipPath
       clipPathUnits="userSpaceOnUse"
       id="clipPath1472-5">
      <rect
         style="opacity:0.997;fill:#6c5353;fill-opacity:1;stroke:none;stroke-width:3.49493;stroke-linecap:round;stroke-miterlimit:4;stroke-dasharray:none;stroke-opacity:1"
         id="rect1474-06"
         width="20.505209"
         height="20.505209"
         x="19.211039"
         y="156.85104"
         ry="10.252603" />
    </clipPath>
    <clipPath
       clipPathUnits="userSpaceOnUse"
       id="clipPath1468-8">
      <rect
         style="opacity:0.997;fill:#6c5353;fill-opacity:1;stroke:none;stroke-width:3.49493;stroke-linecap:round;stroke-miterlimit:4;stroke-dasharray:none;stroke-opacity:1"
         id="rect1470-3"
         width="20.505209"
         height="20.505209"
         x="19.211039"
         y="156.85104"
         ry="10.252603" />
    </clipPath>
    <clipPath
       clipPathUnits="userSpaceOnUse"
       id="clipPath1464-5">
      <rect
         style="opacity:0.997;fill:#6c5353;fill-opacity:1;stroke:none;stroke-width:3.49493;stroke-linecap:round;stroke-miterlimit:4;stroke-dasharray:none;stroke-opacity:1"
         id="rect1466-7"
         width="20.505209"
         height="20.505209"
         x="19.211039"
         y="156.85104"
         ry="10.252603" />
    </clipPath>
    <clipPath
       clipPathUnits="userSpaceOnUse"
       id="clipPath1476-2">
      <rect
         style="opacity:0.997;fill:#6c5353;fill-opacity:1;stroke:none;stroke-width:3.49493;stroke-linecap:round;stroke-miterlimit:4;stroke-dasharray:none;stroke-opacity:1"
         id="rect1478-4"
         width="20.505209"
         height="20.505209"
         x="19.211039"
         y="156.85104"
         ry="10.252603" />
    </clipPath>
    <clipPath
       clipPathUnits="userSpaceOnUse"
       id="clipPath1472-3">
      <rect
         style="opacity:0.997;fill:#6c5353;fill-opacity:1;stroke:none;stroke-width:3.49493;stroke-linecap:round;stroke-miterlimit:4;stroke-dasharray:none;stroke-opacity:1"
         id="rect1474-2"
         width="20.505209"
         height="20.505209"
         x="19.211039"
         y="156.85104"
         ry="10.252603" />
    </clipPath>
    <clipPath
       clipPathUnits="userSpaceOnUse"
       id="clipPath1468-6">
      <rect
         style="opacity:0.997;fill:#6c5353;fill-opacity:1;stroke:none;stroke-width:3.49493;stroke-linecap:round;stroke-miterlimit:4;stroke-dasharray:none;stroke-opacity:1"
         id="rect1470-7"
         width="20.505209"
         height="20.505209"
         x="19.211039"
         y="156.85104"
         ry="10.252603" />
    </clipPath>
    <clipPath
       clipPathUnits="userSpaceOnUse"
       id="clipPath1464-7">
      <rect
         style="opacity:0.997;fill:#6c5353;fill-opacity:1;stroke:none;stroke-width:3.49493;stroke-linecap:round;stroke-miterlimit:4;stroke-dasharray:none;stroke-opacity:1"
         id="rect1466-4"
         width="20.505209"
         height="20.505209"
         x="19.211039"
         y="156.85104"
         ry="10.252603" />
    </clipPath>
  </defs>
  <sodipodi:namedview
     id="base"
     pagecolor="#ffffff"
     bordercolor="#666666"
     borderopacity="1.0"
     inkscape:pageopacity="0.0"
     inkscape:pageshadow="2"
     inkscape:zoom="1"
     inkscape:cx="297.8052"
     inkscape:cy="19.627829"
     inkscape:document-units="px"
     inkscape:current-layer="layer1"
     inkscape:document-rotation="0"
     showgrid="false"
     units="px"
     showguides="true"
     inkscape:guide-bbox="true"
     inkscape:window-width="1440"
     inkscape:window-height="847"
     inkscape:window-x="1352"
     inkscape:window-y="-8"
     inkscape:window-maximized="1" />
  <metadata
     id="metadata5">
    <rdf:RDF>
      <cc:Work
         rdf:about="">
        <dc:format>image/svg+xml</dc:format>
        <dc:type
           rdf:resource="http://purl.org/dc/dcmitype/StillImage" />
        <dc:title></dc:title>
      </cc:Work>
    </rdf:RDF>
  </metadata>
  <g
     inkscape:label="Capa 1"
     inkscape:groupmode="layer"
     id="layer1">
    <g
       id="g3007"
       transform="translate(-96.09882,-91.883651)">
      <path
         style="color:#000000;font-style:normal;font-variant:normal;font-weight:normal;font-stretch:normal;font-size:medium;line-height:normal;font-family:sans-serif;font-variant-ligatures:normal;font-variant-position:normal;font-variant-caps:normal;font-variant-numeric:normal;font-variant-alternates:normal;font-variant-east-asian:normal;font-feature-settings:normal;font-variation-settings:normal;text-indent:0;text-align:start;text-decoration:none;text-decoration-line:none;text-decoration-style:solid;text-decoration-color:#000000;letter-spacing:normal;word-spacing:normal;text-transform:none;writing-mode:lr-tb;direction:ltr;text-orientation:mixed;dominant-baseline:auto;baseline-shift:baseline;text-anchor:start;white-space:normal;shape-padding:0;shape-margin:0;inline-size:0;clip-rule:nonzero;display:inline;overflow:visible;visibility:visible;isolation:auto;mix-blend-mode:normal;color-interpolation:sRGB;color-interpolation-filters:linearRGB;solid-color:#000000;solid-opacity:1;vector-effect:none;fill:#8fdfff;fill-opacity:1;fill-rule:nonzero;stroke:none;stroke-linecap:round;stroke-linejoin:miter;stroke-miterlimit:4;stroke-dasharray:none;stroke-dashoffset:0;stroke-opacity:1;color-rendering:auto;image-rendering:auto;shape-rendering:auto;text-rendering:auto;enable-background:accumulate;stop-color:#000000"
         d="m 104.55846,91.893004 a 0.49609399,0.49609399 0 0 0 -0.47852,0.51368 0.49609399,0.49609399 0 0 0 0.51367,0.47851 c 5.6172,-0.20245 8.8226,2.994 9.98243,7.01563 1.15982,4.021626 0.15218,8.850246 -2.83594,11.708976 -2.63097,2.51704 -7.08706,2.57936 -10.39844,0.35547 -3.311376,-2.22389 -5.505906,-6.66961 -3.501946,-13.349606 a 0.49609399,0.49609399 0 0 0 -0.33203,-0.61719 0.49609399,0.49609399 0 0 0 -0.61719,0.33203 c -2.09791,6.993176 0.23911,12.001416 3.898436,14.458986 3.65932,2.45756 8.61243,2.43043 11.63671,-0.46289 3.30633,-3.16316 4.36311,-8.33359 3.10352,-12.701166 -1.25959,-4.36759 -4.95469,-7.94925 -10.9707,-7.73243 z"
         id="path1192-9-6" />
      <path
         style="color:#000000;font-style:normal;font-variant:normal;font-weight:normal;font-stretch:normal;font-size:medium;line-height:normal;font-family:sans-serif;font-variant-ligatures:normal;font-variant-position:normal;font-variant-caps:normal;font-variant-numeric:normal;font-variant-alternates:normal;font-variant-east-asian:normal;font-feature-settings:normal;font-variation-settings:normal;text-indent:0;text-align:start;text-decoration:none;text-decoration-line:none;text-decoration-style:solid;text-decoration-color:#000000;letter-spacing:normal;word-spacing:normal;text-transform:none;writing-mode:lr-tb;direction:ltr;text-orientation:mixed;dominant-baseline:auto;baseline-shift:baseline;text-anchor:start;white-space:normal;shape-padding:0;shape-margin:0;inline-size:0;clip-rule:nonzero;display:inline;overflow:visible;visibility:visible;isolation:auto;mix-blend-mode:normal;color-interpolation:sRGB;color-interpolation-filters:linearRGB;solid-color:#000000;solid-opacity:1;vector-effect:none;fill:#8fdfff;fill-opacity:1;fill-rule:nonzero;stroke:none;stroke-linecap:round;stroke-linejoin:miter;stroke-miterlimit:4;stroke-dasharray:none;stroke-dashoffset:0;stroke-opacity:1;color-rendering:auto;image-rendering:auto;shape-rendering:auto;text-rendering:auto;enable-background:accumulate;stop-color:#000000"
         d="m 101.61705,93.051214 a 0.49609399,0.49609399 0 0 0 -0.23437,0.0664 c -1.35375,0.78925 -2.641406,1.92076 -3.714846,3.71289 a 0.49609399,0.49609399 0 0 0 0.16992,0.67969 0.49609399,0.49609399 0 0 0 0.68164,-0.16992 c 0.98976,-1.65243 2.126346,-2.64409 3.363286,-3.36523 a 0.49609399,0.49609399 0 0 0 0.17773,-0.67969 0.49609399,0.49609399 0 0 0 -0.44336,-0.24414 z"
         id="path1194-1-0" />
      <path
         style="color:#000000;font-style:normal;font-variant:normal;font-weight:normal;font-stretch:normal;font-size:medium;line-height:normal;font-family:sans-serif;font-variant-ligatures:normal;font-variant-position:normal;font-variant-caps:normal;font-variant-numeric:normal;font-variant-alternates:normal;font-variant-east-asian:normal;font-feature-settings:normal;font-variation-settings:normal;text-indent:0;text-align:start;text-decoration:none;text-decoration-line:none;text-decoration-style:solid;text-decoration-color:#000000;letter-spacing:normal;word-spacing:normal;text-transform:none;writing-mode:lr-tb;direction:ltr;text-orientation:mixed;dominant-baseline:auto;baseline-shift:baseline;text-anchor:start;white-space:normal;shape-padding:0;shape-margin:0;inline-size:0;clip-rule:nonzero;display:inline;overflow:visible;visibility:visible;isolation:auto;mix-blend-mode:normal;color-interpolation:sRGB;color-interpolation-filters:linearRGB;solid-color:#000000;solid-opacity:1;vector-effect:none;fill:#8fdfff;fill-opacity:1;fill-rule:nonzero;stroke:none;stroke-linecap:round;stroke-linejoin:miter;stroke-miterlimit:4;stroke-dasharray:none;stroke-dashoffset:0;stroke-opacity:1;color-rendering:auto;image-rendering:auto;shape-rendering:auto;text-rendering:auto;enable-background:accumulate;stop-color:#000000"
         d="m 103.02135,92.338324 a 0.49609399,0.49609399 0 0 0 -0.4961,0.49609 0.49609399,0.49609399 0 0 0 0.4961,0.49609 0.49609399,0.49609399 0 0 0 0.49609,-0.49609 0.49609399,0.49609399 0 0 0 -0.49609,-0.49609 z"
         id="path1198-6-4" />
      <path
         style="color:#000000;font-style:normal;font-variant:normal;font-weight:normal;font-stretch:normal;font-size:medium;line-height:normal;font-family:sans-serif;font-variant-ligatures:normal;font-variant-position:normal;font-variant-caps:normal;font-variant-numeric:normal;font-variant-alternates:normal;font-variant-east-asian:normal;font-feature-settings:normal;font-variation-settings:normal;text-indent:0;text-align:start;text-decoration:none;text-decoration-line:none;text-decoration-style:solid;text-decoration-color:#000000;letter-spacing:normal;word-spacing:normal;text-transform:none;writing-mode:lr-tb;direction:ltr;text-orientation:mixed;dominant-baseline:auto;baseline-shift:baseline;text-anchor:start;white-space:normal;shape-padding:0;shape-margin:0;inline-size:0;clip-rule:nonzero;display:inline;overflow:visible;visibility:visible;opacity:0.997;isolation:auto;mix-blend-mode:normal;color-interpolation:sRGB;color-interpolation-filters:linearRGB;solid-color:#000000;solid-opacity:1;vector-effect:none;fill:#8fdfff;fill-opacity:1;fill-rule:nonzero;stroke:none;stroke-linecap:round;stroke-linejoin:round;stroke-miterlimit:4;stroke-dasharray:none;stroke-dashoffset:14.0625;stroke-opacity:1;color-rendering:auto;image-rendering:auto;shape-rendering:auto;text-rendering:auto;enable-background:accumulate;stop-color:#000000;stop-opacity:1"
         d="m 112.76562,101.32031 c -1.08729,0 -1.97851,0.89123 -1.97851,1.97852 0,1.08729 0.89122,1.98047 1.97851,1.98047 1.0873,0 1.98047,-0.89318 1.98047,-1.98047 0,-1.08729 -0.89317,-1.97852 -1.98047,-1.97852 z m 0,1.0293 c 0.53521,0 0.95118,0.41401 0.95118,0.94922 0,0.5352 -0.41597,0.95117 -0.95118,0.95117 -0.5352,0 -0.94921,-0.41597 -0.94921,-0.95117 0,-0.53521 0.41401,-0.94922 0.94921,-0.94922 z"
         id="rect1209-2-5" />
      <path
         style="color:#000000;font-style:normal;font-variant:normal;font-weight:normal;font-stretch:normal;font-size:medium;line-height:normal;font-family:sans-serif;font-variant-ligatures:normal;font-variant-position:normal;font-variant-caps:normal;font-variant-numeric:normal;font-variant-alternates:normal;font-variant-east-asian:normal;font-feature-settings:normal;font-variation-settings:normal;text-indent:0;text-align:start;text-decoration:none;text-decoration-line:none;text-decoration-style:solid;text-decoration-color:#000000;letter-spacing:normal;word-spacing:normal;text-transform:none;writing-mode:lr-tb;direction:ltr;text-orientation:mixed;dominant-baseline:auto;baseline-shift:baseline;text-anchor:start;white-space:normal;shape-padding:0;shape-margin:0;inline-size:0;clip-rule:nonzero;display:inline;overflow:visible;visibility:visible;opacity:0.997;isolation:auto;mix-blend-mode:normal;color-interpolation:sRGB;color-interpolation-filters:linearRGB;solid-color:#000000;solid-opacity:1;vector-effect:none;fill:#8fdfff;fill-opacity:1;fill-rule:nonzero;stroke:none;stroke-linecap:round;stroke-linejoin:round;stroke-miterlimit:4;stroke-dasharray:none;stroke-dashoffset:14.0625;stroke-opacity:1;color-rendering:auto;image-rendering:auto;shape-rendering:auto;text-rendering:auto;enable-background:accumulate;stop-color:#000000;stop-opacity:1"
         d="m 106.85156,106.00781 c -0.036,4e-5 -0.0622,0.027 -0.0977,0.0293 l -0.002,-0.0176 a 0.41704471,0.41704471 0 0 0 -0.12695,0.0566 c -0.49979,0.0735 -0.90989,0.34771 -1.16797,0.75977 a 0.41704471,0.41704471 0 0 0 -0.17578,0.2207 l -0.0254,0.0801 c -0.008,0.0238 -0.0197,0.0537 -0.0312,0.0937 l -0.57031,1.71875 0.0137,-0.0332 c -0.089,0.20606 -0.13867,0.43472 -0.13867,0.67382 0,0.82429 0.63516,1.42946 1.41797,1.57813 a 0.41704471,0.41704471 0 0 0 0.27343,0.11523 0.41704471,0.41704471 0 0 0 0.01,0 h 0.002 1.7793 0.0195 a 0.41704471,0.41704471 0 0 0 0.006,0 0.41704471,0.41704471 0 0 0 0.29297,-0.125 c 0.76093,-0.16579 1.37695,-0.75974 1.37695,-1.56836 0,-0.43025 -0.16368,-0.82716 -0.42773,-1.125 l 0.0469,0.0645 -1.04883,-1.75977 a 0.41704471,0.41704471 0 0 0 -0.36914,-0.20312 c -0.20321,-0.18407 -0.437,-0.30815 -0.71093,-0.37696 a 0.41704471,0.41704471 0 0 0 -0.34375,-0.18164 c -6.4e-4,0 -0.001,0 -0.002,0 z m 0,0.83399 c 6.5e-4,0 10e-4,0 0.002,0 0.30151,6.3e-4 0.55905,0.14948 0.71289,0.37695 a 0.41704471,0.41704471 0 0 0 0.45898,0.16797 l -0.30078,0.0859 0.88477,1.48242 a 0.41704471,0.41704471 0 0 0 0.0469,0.0645 c 0.1355,0.15284 0.2168,0.34815 0.2168,0.57031 0,0.47942 -0.37027,0.8522 -0.84766,0.85938 a 0.41704471,0.41704471 0 0 0 -0.0137,0 h -1.77539 -0.004 c -0.0438,0 -0.0363,0 -0.01,0 -0.48415,0 -0.85938,-0.37539 -0.85938,-0.85938 0,-0.12299 0.0247,-0.23825 0.0703,-0.34375 a 0.41704471,0.41704471 0 0 0 0.0137,-0.0332 l 0.51367,-1.55469 -0.34766,-0.0586 a 0.41704471,0.41704471 0 0 0 0.45117,-0.24414 c 0.13213,-0.30247 0.42893,-0.51294 0.78711,-0.51367 z"
         id="rect1209-5-9-2" />
      <path
         style="color:#000000;font-style:normal;font-variant:normal;font-weight:normal;font-stretch:normal;font-size:medium;line-height:normal;font-family:sans-serif;font-variant-ligatures:normal;font-variant-position:normal;font-variant-caps:normal;font-variant-numeric:normal;font-variant-alternates:normal;font-variant-east-asian:normal;font-feature-settings:normal;font-variation-settings:normal;text-indent:0;text-align:start;text-decoration:none;text-decoration-line:none;text-decoration-style:solid;text-decoration-color:#000000;letter-spacing:normal;word-spacing:normal;text-transform:none;writing-mode:lr-tb;direction:ltr;text-orientation:mixed;dominant-baseline:auto;baseline-shift:baseline;text-anchor:start;white-space:normal;shape-padding:0;shape-margin:0;inline-size:0;clip-rule:nonzero;display:inline;overflow:visible;visibility:visible;opacity:1;isolation:auto;mix-blend-mode:normal;color-interpolation:sRGB;color-interpolation-filters:linearRGB;solid-color:#000000;solid-opacity:1;vector-effect:none;fill:#8fdfff;fill-opacity:1;fill-rule:nonzero;stroke:none;stroke-linecap:round;stroke-linejoin:miter;stroke-miterlimit:4;stroke-dasharray:none;stroke-dashoffset:0;stroke-opacity:1;color-rendering:auto;image-rendering:auto;shape-rendering:auto;text-rendering:auto;enable-background:accumulate;stop-color:#000000;stop-opacity:1"
         d="m 102.85352,96.181641 a 0.49609399,0.49609399 0 0 0 -0.23243,0.07031 c -0.93964,0.562482 -1.86609,1.67565 -2.33789,2.582031 a 0.49609399,0.49609399 0 0 0 0.21094,0.669922 0.49609399,0.49609399 0 0 0 0.66992,-0.210937 c 0.36358,-0.698473 1.313,-1.798081 1.9668,-2.189453 a 0.49609399,0.49609399 0 0 0 0.16992,-0.679688 0.49609399,0.49609399 0 0 0 -0.44726,-0.242187 z"
         id="path2980" />
      <path
         style="color:#000000;font-style:normal;font-variant:normal;font-weight:normal;font-stretch:normal;font-size:medium;line-height:normal;font-family:sans-serif;font-variant-ligatures:normal;font-variant-position:normal;font-variant-caps:normal;font-variant-numeric:normal;font-variant-alternates:normal;font-variant-east-asian:normal;font-feature-settings:normal;font-variation-settings:normal;text-indent:0;text-align:start;text-decoration:none;text-decoration-line:none;text-decoration-style:solid;text-decoration-color:#000000;letter-spacing:normal;word-spacing:normal;text-transform:none;writing-mode:lr-tb;direction:ltr;text-orientation:mixed;dominant-baseline:auto;baseline-shift:baseline;text-anchor:start;white-space:normal;shape-padding:0;shape-margin:0;inline-size:0;clip-rule:nonzero;display:inline;overflow:visible;visibility:visible;opacity:1;isolation:auto;mix-blend-mode:normal;color-interpolation:sRGB;color-interpolation-filters:linearRGB;solid-color:#000000;solid-opacity:1;vector-effect:none;fill:#8fdfff;fill-opacity:1;fill-rule:nonzero;stroke:none;stroke-linecap:round;stroke-linejoin:miter;stroke-miterlimit:4;stroke-dasharray:none;stroke-dashoffset:0;stroke-opacity:1;color-rendering:auto;image-rendering:auto;shape-rendering:auto;text-rendering:auto;enable-background:accumulate;stop-color:#000000;stop-opacity:1"
         d="m 104.16406,95.201172 a 0.49609399,0.49609399 0 0 0 -0.49609,0.496094 0.49609399,0.49609399 0 0 0 0.49609,0.496093 0.49609399,0.49609399 0 0 0 0.4961,-0.496093 0.49609399,0.49609399 0 0 0 -0.4961,-0.496094 z"
         id="path2982" />
    </g>
  </g>
</svg>
